<svg id="close_1_" data-name="close (1)" xmlns="http://www.w3.org/2000/svg" width="15.285" height="15.286" viewBox="0 0 15.285 15.286">
  <path id="Path_330" data-name="Path 330" d="M.825,15.286a.787.787,0,0,1-.556-1.343L13.982.23a.786.786,0,0,1,1.112,1.112L1.382,15.055A.788.788,0,0,1,.825,15.286Zm0,0" transform="translate(-0.039)" fill="#434552"/>
  <path id="Path_331" data-name="Path 331" d="M14.538,15.286a.78.78,0,0,1-.556-.231L.269,1.343A.787.787,0,1,1,1.382.23L15.094,13.943a.787.787,0,0,1-.555,1.343Zm0,0" transform="translate(-0.039)" fill="#434552"/>
</svg>
