<svg xmlns="http://www.w3.org/2000/svg" width="16.5" height="13.505" viewBox="0 0 16.5 13.505">
  <g id="Group_18536" data-name="Group 18536" transform="translate(-1993.821 1084.723)">
    <path id="Path_292" data-name="Path 292" d="M15.955,16.779H7.195A1.2,1.2,0,0,1,6,15.584a3.172,3.172,0,0,1,.736-1.844,4.19,4.19,0,0,1,1.695-1.212A8.327,8.327,0,0,1,11.575,12a8.346,8.346,0,0,1,3.144.527,4.19,4.19,0,0,1,1.695,1.212,3.165,3.165,0,0,1,.736,1.844A1.2,1.2,0,0,1,15.955,16.779ZM6.8,15.587a.4.4,0,0,0,.4.4h8.761a.4.4,0,0,0,.4-.4,2.429,2.429,0,0,0-.589-1.381c-.776-.921-2.224-1.408-4.19-1.408s-3.414.487-4.19,1.408A2.431,2.431,0,0,0,6.8,15.587Z" transform="translate(1992.921 -1088.248)" fill="#03aeee" stroke="#03aeee" stroke-width="0.5"/>
    <path id="Path_293" data-name="Path 293" d="M12.186,9.372a3.186,3.186,0,1,1,3.186-3.186A3.189,3.189,0,0,1,12.186,9.372Zm0-5.575a2.389,2.389,0,1,0,2.389,2.389A2.392,2.392,0,0,0,12.186,3.8Z" transform="translate(1992.293 -1087.473)" fill="#03aeee" stroke="#03aeee" stroke-width="0.5"/>
    <path id="Path_294" data-name="Path 294" d="M3.584,16.982H1.195A1.2,1.2,0,0,1,0,15.788a2.6,2.6,0,0,1,.528-1.434,3.033,3.033,0,0,1,1.221-.946A5.507,5.507,0,0,1,3.983,13c.143,0,.284,0,.42.011a.4.4,0,1,1-.042.8c-.122-.006-.248-.01-.377-.01C.882,13.8.8,15.692.8,15.791a.4.4,0,0,0,.4.4H3.586a.4.4,0,1,1,0,.8Z" transform="translate(1994.071 -1088.451)" fill="#03aeee" stroke="#03aeee" stroke-width="0.5"/>
    <path id="Path_295" data-name="Path 295" d="M4.389,10.779A2.389,2.389,0,1,1,6.779,8.389,2.392,2.392,0,0,1,4.389,10.779Zm0-3.982A1.593,1.593,0,1,0,5.982,8.389,1.594,1.594,0,0,0,4.389,6.8Z" transform="translate(1992.664 -1088.067)" fill="#03aeee" stroke="#03aeee" stroke-width="0.5"/>
  </g>
</svg>
