<svg xmlns="http://www.w3.org/2000/svg" width="22.267" height="22.27" viewBox="0 0 22.267 22.27">
  <path id="Path_327" data-name="Path 327" d="M24.632,1.391a3.415,3.415,0,0,0-4.831,0L6.258,14.934a.744.744,0,0,0-.2.334L4.282,21.7a.758.758,0,0,0,.934.934l6.43-1.78a.743.743,0,0,0,.334-.2L25.523,7.113a3.422,3.422,0,0,0,0-4.831ZM7.913,15.426,19,4.342,22.57,7.916,11.487,19ZM7.2,16.859l2.855,2.855-3.95,1.094ZM24.45,6.038l-.805.805L20.07,3.269l.805-.805a1.9,1.9,0,0,1,2.683,0l.891.891A1.9,1.9,0,0,1,24.45,6.038Z" transform="translate(-4.253 -0.39)" fill="#fff"/>
</svg>
